<svg xmlns="http://www.w3.org/2000/svg" width="256" height="256" viewBox="0 0 256 256">
  <rect width="256" height="256" fill="#e5f5ea" rx="64"></rect>
  <path d="M128,40C72,40,40,88,40,128c0,40,32,88,88,88s88-48,88-88C216,88,184,40,128,40Zm0,152c-39.7,0-64-33.1-64-64,0-30.9,24.3-64,64-64,39.7,0,64,33.1,64,64C192,158.9,167.7,192,128,192Z" fill="#2ecc71" opacity="0.3"></path>
  <path d="M168,104a48.05,48.05,0,0,0-48-48V48a8,8,0,0,0-16,0v8a48.05,48.05,0,0,0-48,48v16a8,8,0,0,0,8,8h32a24,24,0,0,1-24,24,8,8,0,0,0,0,16h24v24a8,8,0,0,0,16,0V168a24,24,0,0,1,24-24,8,8,0,0,0,0-16H112a32.04,32.04,0,0,1,32-32h24a8,8,0,0,0,0-16Z" fill="#0b5c39"></path>
</svg>
