<svg xmlns="http://www.w3.org/2000/svg" width="256" height="256" viewBox="0 0 256 256">
  <rect width="256" height="256" fill="none"></rect>
  <path d="M240,120a80.1,80.1,0,0,1-80,80,8,8,0,0,1-8-8,56.06,56.06,0,0,0-56-56,8,8,0,0,1-8-8V24a8,8,0,0,1,8-8,80.1,80.1,0,0,1,80,80A56.06,56.06,0,0,0,232,152,8,8,0,0,1,240,120Z" fill="#2ecc71" opacity="0.35"></path>
  <path d="M216,40H176a48.05,48.05,0,0,0-48,48v16a48.05,48.05,0,0,0,48,48h40a8,8,0,0,0,8-8V48A8,8,0,0,0,216,40ZM168,104a32.04,32.04,0,0,1,32-32h8v32a32.04,32.04,0,0,1-32,32h-8ZM80,40A48.05,48.05,0,0,0,32,88v56a8,8,0,0,0,8,8h40a48.05,48.05,0,0,0,48-48V88A48.05,48.05,0,0,0,80,40ZM112,88a32.04,32.04,0,0,1-32-32H72v32a32.04,32.04,0,0,1,32,32h8ZM128,152a8,8,0,0,0-8,8v48a8,8,0,0,1-16,0,8,8,0,0,0-16,0,24,24,0,0,0,48,0V160A8,8,0,0,0,128,152Z" fill="#0b5c39"></path>
</svg>
